<svg id="Layer_1" data-name="Layer 1" xmlns="http://www.w3.org/2000/svg" viewBox="0 0 203.66 30"><defs><style>.cls-1{fill:#24b5b5;}.cls-2{fill:#fff;}</style></defs><title>logo-header</title><g id="_Group_" data-name="&lt;Group&gt;"><path id="_Compound_Path_" data-name="&lt;Compound Path&gt;" d="M9.84,24.27,6.42,18.08H3.71v6.19H0V6.86H8.15c3.63,0,5.85,2.37,5.85,5.61a5,5,0,0,1-3.82,5.17l3.92,6.63Zm.37-11.8A2.36,2.36,0,0,0,7.6,10.12H3.71v4.7H7.6A2.36,2.36,0,0,0,10.21,12.47Z"/><path id="_Compound_Path_2" data-name="&lt;Compound Path&gt;" d="M16.14,24.27V6.86H28.46v3.26H19.84V13.8h8.44v3.27H19.84V21h8.62v3.26Z"/><path id="_Compound_Path_3" data-name="&lt;Compound Path&gt;" d="M29.53,21.82l2-2.82a7.65,7.65,0,0,0,5.54,2.35c2,0,3-.94,3-1.93,0-3.09-10-1-10-7.52,0-2.9,2.51-5.3,6.61-5.3A9.68,9.68,0,0,1,43.47,9l-2.06,2.72a7.46,7.46,0,0,0-5.06-1.91c-1.6,0-2.48.71-2.48,1.75,0,2.77,10,.92,10,7.42,0,3.18-2.28,5.59-7,5.59A10,10,0,0,1,29.53,21.82Z"/><path id="_Compound_Path_4" data-name="&lt;Compound Path&gt;" d="M45.72,24.27V6.86h8.15a5.44,5.44,0,0,1,5.85,5.61,5.46,5.46,0,0,1-5.85,5.61H49.43v6.19Zm10.21-11.8a2.34,2.34,0,0,0-2.56-2.35H49.43v4.7h3.94A2.35,2.35,0,0,0,55.93,12.47Z"/><path id="_Compound_Path_5" data-name="&lt;Compound Path&gt;" d="M60.52,15.58a8.75,8.75,0,0,1,9.09-9,8.75,8.75,0,0,1,9.11,9,8.75,8.75,0,0,1-9.11,9A8.75,8.75,0,0,1,60.52,15.58Zm14.39,0c0-3.27-2.09-5.72-5.3-5.72s-5.27,2.45-5.27,5.72,2.06,5.72,5.27,5.72S74.91,18.82,74.91,15.58Z"/><path id="_Compound_Path_6" data-name="&lt;Compound Path&gt;" d="M92.69,24.27l-8.3-11.36V24.27H80.68V6.86H84.5L92.56,17.8V6.86h3.71V24.27Z"/><path id="_Compound_Path_7" data-name="&lt;Compound Path&gt;" d="M97.89,21.82l2-2.82a7.64,7.64,0,0,0,5.54,2.35c2,0,3-.94,3-1.93,0-3.09-10-1-10-7.52,0-2.9,2.5-5.3,6.6-5.3A9.69,9.69,0,0,1,111.83,9l-2.06,2.72a7.47,7.47,0,0,0-5.07-1.91c-1.59,0-2.48.71-2.48,1.75,0,2.77,10,.92,10,7.42,0,3.18-2.27,5.59-7,5.59A10,10,0,0,1,97.89,21.82Z"/><path id="_Compound_Path_8" data-name="&lt;Compound Path&gt;" d="M114.08,24.27V6.86h3.71V24.27Z"/><path id="_Compound_Path_9" data-name="&lt;Compound Path&gt;" d="M125.46,24.27,118.73,6.86H123l4.83,13.39,4.8-13.39h4.23l-6.71,17.41Z"/><path id="_Compound_Path_10" data-name="&lt;Compound Path&gt;" d="M137.79,24.27V6.86h12.32v3.26h-8.62V13.8H145l3.25,3.27h-6.77V21h8.62v3.26Z"/></g><path id="_Path_" data-name="&lt;Path&gt;" class="cls-1" d="M156.88,30h42.21a4.58,4.58,0,0,0,4.57-4.58V4.58A4.58,4.58,0,0,0,199.09,0H156.88Z"/><polygon id="_Path_2" data-name="&lt;Path&gt;" class="cls-1" points="156.88 19.17 160.56 11.96 149.67 11.96 156.88 19.17"/><path class="cls-2" d="M175.88,24.45V17.18h-8.17v7.27H164V7.14h3.69v6.8h8.17V7.14h3.72V24.45Z"/><path class="cls-2" d="M192.14,24.45l-3.4-6.15H186v6.15h-3.69V7.14h8.1c3.61,0,5.81,2.36,5.81,5.58a5,5,0,0,1-3.79,5.14l3.9,6.59Zm.36-11.73a2.36,2.36,0,0,0-2.6-2.34H186v4.68h3.86A2.36,2.36,0,0,0,192.5,12.72Z"/></svg>